<svg width="548" height="595" viewBox="0 0 548 595" fill="none" xmlns="http://www.w3.org/2000/svg" xmlns:xlink="http://www.w3.org/1999/xlink">
<path d="M0.5 360.5H547.5V563.857C547.5 580.702 533.845 594.357 517 594.357H31C14.1553 594.357 0.5 580.702 0.5 563.857V360.5Z" fill="#E9E9E9" stroke="black"/>
<path d="M28.8438 374.246H521.22V454.158C521.22 471.279 507.34 485.158 490.22 485.158H59.8438C42.7229 485.158 28.8438 471.279 28.8438 454.158V374.246Z" fill="#E9E9E9"/>
<path d="M32 519C32 505.745 42.7452 495 56 495H475.442C488.697 495 499.442 505.745 499.442 519V538C499.442 551.255 488.697 562 475.442 562H56C42.7452 562 32 551.255 32 538V519Z" fill="#E9E9E9"/>
<path d="M41 519C41 505.745 51.7452 495 65 495H484.442C497.697 495 508.442 505.745 508.442 519V538C508.442 551.255 497.697 562 484.442 562H65C51.7452 562 41 551.255 41 538V519Z" fill="#E9E9E9"/>
<rect x="57.9453" y="513" width="248.173" height="32" fill="#007AFF"/>
<path d="M0 38C0 17.0132 17.0132 0 38 0H510C528.778 0 544 15.2223 544 34V360H0V38Z" fill="#F7F7F7"/>
</svg>